<svg xmlns="http://www.w3.org/2000/svg" viewBox="0 0 321 84">
  <g fill="#F3F4F6" fill-rule="evenodd">
    <path d="M167.753164 48.6479056C167.753164 54.0986737 171.693504 57.8380761 176.650386 57.8380761 181.543932 57.8380761 185.738249 54.2888021 185.738249 48.6479056 185.738249 43.1971376 181.543932 39.5211114 176.650386 39.5211114 171.693504 39.5211114 167.753164 43.007219 167.753164 48.6479056L167.753164 48.6479056zM194 64.3028624L186.755002 64.3028624 186.246626 59.9930748C183.831837 63.7324771 179.955044 65 176.142009 65 166.927052 65 160 58.9156803 160 48.6479056 160 37.8733317 166.799958 32.2958113 175.951368 32.2958113 179.256026 32.2958113 184.40355 34.0705532 186.246626 37.3027365L186.246626 20 194 20 194 64.3028624zM205.753164 48.6479056C205.753164 54.0986737 209.693504 57.8380761 214.650386 57.8380761 219.543932 57.8380761 223.738249 54.2888021 223.738249 48.6479056 223.738249 43.1971376 219.543932 39.5211114 214.650386 39.5211114 209.693504 39.5211114 205.753164 43.007219 205.753164 48.6479056L205.753164 48.6479056zM232 64.3028624L224.755002 64.3028624 224.246626 59.9930748C221.831837 63.7324771 217.955044 65 214.142009 65 204.927052 65 198 58.9156803 198 48.6479056 198 37.8733317 204.799958 32.2958113 213.951158 32.2958113 217.256026 32.2958113 222.40355 34.0705532 224.246626 37.3027365L224.246626 20 232 20 232 64.3028624zM238.763836 65L247.236164 65 247.236164 33.3143369 238.763836 33.3143369 238.763836 65zM243.000115 20C245.499943 20 248 21.4721647 248 24.5447202 248 27.5532687 245.499943 29.0896524 243.000115 29.0896524 240.500057 29.0896524 238 27.5532687 238 24.5447202 238 21.4721647 240.500057 20 243.000115 20L243.000115 20zM259.759641 47.2178269C259.759641 52.7968195 263.479046 56.1052519 268.032062 56.1052519 272.521167 56.1052519 276.240571 52.7317377 276.240571 47.2178269 276.240571 41.7037013 272.521167 38.2006679 268.032062 38.2006679 263.479046 38.2006679 259.759641 41.6388343 259.759641 47.2178269M284 47.2178269C284 51.1749294 282.525148 56.753922 277.330679 59.1542162 282.589484 61.8139785 283.871964 65.6413469 283.871964 69.7281835 283.871964 78.5507414 277.202431 84 268.032062 84 258.861693 84 252 78.3561404 252 69.7281835L259.759641 69.7281835C259.759641 73.879887 263.54317 76.6045163 268.032062 76.6045163 272.521167 76.6045163 276.048199 74.1393551 276.048199 69.7281835 276.048199 65.3170119 271.944051 63.3059197 268.032062 63.3059197 258.156329 63.3059197 252 57.2079911 252 47.2178269 252 37.2276627 259.182313 31 268.032062 31 276.817687 31 284 37.2276627 284 47.2178269"/>
    <polygon points="312.167 32 305.649 43.342 307.996 51.404 296.833 32 288 32 300.089 53.014 288.028 74 296.861 74 321 32"/>
    <path d="M126.580316 48.7015326L135.000107 29.6546629 143.419684 48.7015326 126.580316 48.7015326zM135.000107 10L110 65 119.261706 65 123.14768 56.5630591 146.85232 56.5630591 150.673746 65 160 65 135.000107 10zM79.2737764 58.4884506L45.7205134 14.3728518 63.910814 8.68987239 86.5406499 38.4435482 79.2737764 58.4884506zM0 74L91.0713688 74 96 37.8987893 67.0515161 0 20.5268305 4.15294649 68.1298815 66.7413809 60.4860725 60.3969986 38.6357935 60.3969986 48.5011895 50.4496829 40.1617299 43.5279653 0 74z"/>
  </g>
</svg>
