<svg width="97" height="97" viewBox="0 0 97 97" fill="none" xmlns="http://www.w3.org/2000/svg">
<path d="M76.7917 40.9017C76.63 40.9017 76.5492 40.9017 76.3875 40.9017C76.63 39.6083 76.7917 38.2342 76.7917 36.86C76.7917 25.705 67.7383 16.6517 56.5833 16.6517C50.2783 16.6517 42.3567 19.7233 37.83 28.9383C37.4258 28.8575 36.6983 28.8575 36.1325 28.8575C28.6958 28.8575 22.4717 33.95 20.6933 40.8208L20.6125 40.9017C20.4508 40.9017 20.2892 40.9017 20.1275 40.9017C13.4183 40.9017 8.0025 46.3175 8.0025 53.0267C8.0025 59.7358 13.4183 65.1517 20.1275 65.1517C21.0167 65.1517 74.7708 65.1517 76.7108 65.1517C83.42 65.1517 88.8358 59.7358 88.8358 53.0267C88.9167 46.3175 83.5008 40.9017 76.7917 40.9017Z" fill="#F5F5F5"/>
<path d="M60.625 60.625C68.4658 60.625 74.8517 60.625 76.7917 60.625C83.5008 60.625 88.9167 55.2092 88.9167 48.5C88.9167 41.7908 83.5008 36.375 76.7917 36.375C76.63 36.375 76.5492 36.375 76.3875 36.375C76.63 35.0817 76.7917 33.7075 76.7917 32.3333C76.7917 21.1783 67.7383 12.125 56.5833 12.125C48.2575 12.125 41.1442 17.1367 37.9917 24.3308" stroke="#282828" stroke-width="3" stroke-miterlimit="10" stroke-linecap="round" stroke-linejoin="round"/>
<path d="M36.375 60.625C42.0333 60.625 46.4792 60.625 52.5417 60.625" stroke="#282828" stroke-width="3" stroke-miterlimit="10" stroke-linecap="round" stroke-linejoin="round"/>
<path d="M30.2317 25.4625C25.5433 27.4025 21.9867 31.4442 20.7742 36.375C20.6125 36.375 20.4508 36.375 20.2892 36.375C13.58 36.375 8.16415 41.7909 8.16415 48.5C8.16415 55.2092 13.58 60.625 20.2892 60.625C21.1783 60.625 24.1692 60.625 28.3725 60.625" stroke="#282828" stroke-width="3" stroke-miterlimit="10" stroke-linecap="round" stroke-linejoin="round"/>
<path d="M36.7791 36.375C35.4858 29.9892 37.345 23.0375 42.2758 18.0258" stroke="#282828" stroke-width="3" stroke-miterlimit="10" stroke-linecap="round" stroke-linejoin="round"/>
<path d="M60.625 46.4792V84.875" stroke="#282828" stroke-width="3" stroke-miterlimit="10" stroke-linecap="round" stroke-linejoin="round"/>
<path d="M66.6875 78.8125L60.625 84.875L54.5625 78.8125" stroke="#282828" stroke-width="3" stroke-miterlimit="10" stroke-linecap="round" stroke-linejoin="round"/>
<path d="M36.375 84.875V46.4792" stroke="#282828" stroke-width="3" stroke-miterlimit="10" stroke-linecap="round" stroke-linejoin="round"/>
<path d="M30.3125 52.5417L36.375 46.4792L42.4375 52.5417" stroke="#282828" stroke-width="3" stroke-miterlimit="10" stroke-linecap="round" stroke-linejoin="round"/>
</svg>
