<svg width="101" height="74" viewBox="0 0 101 74" fill="none" xmlns="http://www.w3.org/2000/svg">
<path d="M98.1645 36.2952H83.9059C82.3666 36.2952 81.0704 37.5915 81.0704 39.1307V70.5645C81.0704 72.1037 82.3666 73.4 83.9059 73.4H98.1645C99.7038 73.4 101 72.1037 101 70.5645V39.1307C101 37.5104 99.7038 36.2952 98.1645 36.2952Z" fill="#F5F5F5"/>
<path d="M42.0213 17.1757H81.0704V10.2085C81.0704 8.1831 79.4501 6.56281 77.4247 6.56281H10.4255C8.40016 6.56281 6.77987 8.1831 6.77987 10.2085V54.9286C6.77987 56.954 8.40016 58.5743 10.4255 58.5743H39.1047V20.0923C39.1047 18.472 40.401 17.1757 42.0213 17.1757Z" fill="#F5F5F5"/>
<path d="M96.2201 25.7633V20.0923C96.2201 18.553 94.9239 17.2568 93.3846 17.2568H41.9403C40.401 17.2568 39.1047 18.553 39.1047 20.0923V60.0326C39.1047 61.5718 40.401 62.8681 41.9403 62.8681H70.4574" stroke="#282828" stroke-width="3" stroke-miterlimit="10" stroke-linecap="round" stroke-linejoin="round"/>
<path d="M70.5385 57.1971H61.9509" stroke="#282828" stroke-width="3" stroke-miterlimit="10" stroke-linecap="round" stroke-linejoin="round"/>
<path d="M44.8568 41.4802C45.6622 41.4802 46.315 40.8273 46.315 40.0219C46.315 39.2165 45.6622 38.5637 44.8568 38.5637C44.0514 38.5637 43.3985 39.2165 43.3985 40.0219C43.3985 40.8273 44.0514 41.4802 44.8568 41.4802Z" fill="#282828"/>
<path d="M93.3846 31.4344H79.045C77.5057 31.4344 76.2095 32.7306 76.2095 34.2699V65.7036C76.2095 67.2429 77.5057 68.5391 79.045 68.5391H93.3036C94.8429 68.5391 96.1391 67.2429 96.1391 65.7036V34.3509C96.2201 32.7306 94.9239 31.4344 93.3846 31.4344Z" stroke="#282828" stroke-width="3" stroke-miterlimit="10" stroke-linecap="round" stroke-linejoin="round"/>
<path d="M82.6097 62.8681H89.82" stroke="#282828" stroke-width="3" stroke-miterlimit="10" stroke-linecap="round" stroke-linejoin="round"/>
<path d="M86.2553 37.1864C87.0607 37.1864 87.7136 36.5335 87.7136 35.7281C87.7136 34.9228 87.0607 34.2699 86.2553 34.2699C85.4499 34.2699 84.797 34.9228 84.797 35.7281C84.797 36.5335 85.4499 37.1864 86.2553 37.1864Z" fill="#282828"/>
<path d="M76.2095 11.5857V5.50964C76.2095 3.48427 74.5082 1.78296 72.4828 1.78296H5.72668C3.70131 1.78296 2 3.48427 2 5.50964V50.0677C2 52.0931 3.70131 53.7944 5.72668 53.7944H33.6768" stroke="#282828" stroke-width="3" stroke-miterlimit="10" stroke-linecap="round" stroke-linejoin="round"/>
<path d="M2 42.6144H33.6768" stroke="#282828" stroke-width="3" stroke-miterlimit="10" stroke-linecap="round" stroke-linejoin="round"/>
<path d="M24.2791 68.5391H53.9304" stroke="#282828" stroke-width="3" stroke-miterlimit="10" stroke-linecap="round" stroke-linejoin="round"/>
<path d="M31.6514 68.5391V53.7134" stroke="#282828" stroke-width="3" stroke-miterlimit="10" stroke-linecap="round" stroke-linejoin="round"/>
</svg>
