<?xml version="1.0" encoding="utf-8"?>
<!-- Generator: Adobe Illustrator 25.2.3, SVG Export Plug-In . SVG Version: 6.00 Build 0)  -->
<svg version="1.1" id="Layer_1" xmlns="http://www.w3.org/2000/svg" xmlns:xlink="http://www.w3.org/1999/xlink" x="0px" y="0px"
	 viewBox="0 0 120 120" style="enable-background:new 0 0 120 120;" xml:space="preserve">
<style type="text/css">
	.st0{fill:#F5F5F5;}
	.st1{fill:none;stroke:#282828;stroke-width:3;stroke-linecap:round;stroke-linejoin:round;stroke-miterlimit:10;}
	.st2{fill:#282828;}
</style>
<g>
	<path class="st0" d="M100.9,55.5c0,25-20.5,46.2-38.6,52.3V94.1c-21.3,0-38.6-17.3-38.6-38.6s17.3-38.6,38.6-38.6
		S100.9,34.1,100.9,55.5z"/>
	<g>
		<path class="st1" d="M44.1,48.6c0-7.5,6.1-13.6,13.6-13.6s13.6,6.1,13.6,13.6s-6.1,13.6-13.6,13.6v9.1"/>
		<circle class="st2" cx="57.7" cy="80.5" r="2.3"/>
		<path class="st1" d="M96.4,50.9c0,25-20.5,46.2-38.6,52.3V89.5c-21.3,0-38.6-17.3-38.6-38.6s17.3-38.6,38.6-38.6
			S96.4,29.6,96.4,50.9z"/>
	</g>
</g>
</svg>
