<?xml version="1.0" encoding="utf-8"?>
<!-- Generator: Adobe Illustrator 25.2.3, SVG Export Plug-In . SVG Version: 6.00 Build 0)  -->
<svg version="1.1" id="Layer_1" xmlns="http://www.w3.org/2000/svg" xmlns:xlink="http://www.w3.org/1999/xlink" x="0px" y="0px"
	 viewBox="0 0 120 120" style="enable-background:new 0 0 120 120;" xml:space="preserve">
<style type="text/css">
	.st0{fill:#F5F5F5;}
	.st1{fill:none;stroke:#282828;stroke-width:3;stroke-linecap:round;stroke-linejoin:round;stroke-miterlimit:10;}
	.st2{fill:#282828;}
</style>
<g>
	<path class="st0" d="M107.9,14.8H38.5c-2.7,0-5,2.2-5,5v9.9c19.1,0,34.7,15.5,34.7,34.7C68.2,83.5,52.7,99,33.6,99V99v9.9
		c0,2.7,2.2,5,5,5h69.4c2.7,0,5-2.2,5-5V19.8C112.9,17,110.6,14.8,107.9,14.8z"/>
	<g>
		<g>
			<path class="st1" d="M27,92.4v9.9c0,2.7,2.2,5,5,5h69.4c2.7,0,5-2.2,5-5V13.2c0-2.7-2.2-5-5-5H31.9c-2.7,0-5,2.2-5,5v9.9"/>
			<line class="st1" x1="56.7" y1="97.4" x2="76.5" y2="97.4"/>
			<circle class="st2" cx="66.6" cy="18.1" r="2.5"/>
		</g>
		<line class="st1" x1="7.1" y1="57.8" x2="46.8" y2="57.8"/>
		<line class="st1" x1="27" y1="77.6" x2="27" y2="37.9"/>
	</g>
</g>
</svg>
