<?xml version="1.0" encoding="utf-8"?>
<!-- Generator: Adobe Illustrator 25.2.3, SVG Export Plug-In . SVG Version: 6.00 Build 0)  -->
<svg version="1.1" id="Layer_1" xmlns="http://www.w3.org/2000/svg" xmlns:xlink="http://www.w3.org/1999/xlink" x="0px" y="0px"
	 viewBox="0 0 120 120" style="enable-background:new 0 0 120 120;" xml:space="preserve">
<style type="text/css">
	.st0{fill:#F5F5F5;}
	.st1{fill:none;stroke:#282828;stroke-width:3;stroke-linecap:round;stroke-linejoin:round;stroke-miterlimit:10;}
</style>
<g>
	<path class="st0" d="M103.9,86.5H22.1c-2.5,0-4.5-2-4.5-4.5V22.9c0-2.5,2-4.5,4.5-4.5h81.8c2.5,0,4.5,2,4.5,4.5V82
		C108.5,84.5,106.5,86.5,103.9,86.5z"/>
	<g>
		<path class="st1" d="M97.9,80.5H16.1c-2.5,0-4.5-2-4.5-4.5V16.8c0-2.5,2-4.5,4.5-4.5h81.8c2.5,0,4.5,2,4.5,4.5v59.1
			C102.4,78.4,100.4,80.5,97.9,80.5z"/>
		<line class="st1" x1="34.2" y1="103.2" x2="79.7" y2="103.2"/>
		<line class="st1" x1="47.9" y1="103.2" x2="47.9" y2="80.5"/>
		<line class="st1" x1="66.1" y1="80.5" x2="66.1" y2="103.2"/>
		<path class="st1" d="M76.7,57.7C72.7,64.5,65.4,69.1,57,69.1c-12.6,0-22.7-10.2-22.7-22.7"/>
		<path class="st1" d="M37.3,35c3.9-6.8,11.3-11.4,19.7-11.4c12.6,0,22.7,10.2,22.7,22.7"/>
		<polyline class="st1" points="27.8,52.8 34.2,46.4 40.7,52.8 		"/>
		<polyline class="st1" points="86.1,39.9 79.7,46.4 73.3,39.9 		"/>
	</g>
</g>
</svg>
