<?xml version="1.0" encoding="utf-8"?>
<!-- Generator: Adobe Illustrator 25.2.3, SVG Export Plug-In . SVG Version: 6.00 Build 0)  -->
<svg version="1.1" id="Layer_1" xmlns="http://www.w3.org/2000/svg" xmlns:xlink="http://www.w3.org/1999/xlink" x="0px" y="0px"
	 viewBox="0 0 120 120" style="enable-background:new 0 0 120 120;" xml:space="preserve">
<style type="text/css">
	.st0{fill:none;stroke:#282828;stroke-width:3;stroke-linecap:round;stroke-linejoin:round;stroke-miterlimit:10;}
	.st1{fill:none;stroke:#F5F5F5;stroke-width:5.7596;stroke-linecap:round;stroke-miterlimit:10;}
</style>
<g>
	<circle class="st0" cx="45.2" cy="102.7" r="8.6"/>
	<circle class="st0" cx="36.6" cy="31.9" r="8.6"/>
	<path class="st0" d="M39.7,40c0,0,36.8-14,38.2-14.6c4.4-1.7,6.7-6.7,5-11.1c-1.7-4.4-6.7-6.7-11.1-5c-1.5,0.6-38.2,14.6-38.2,14.6
		"/>
	<line class="st0" x1="50.1" y1="91.6" x2="42.1" y2="94.6"/>
	<line class="st1" x1="55.8" y1="74.1" x2="77.9" y2="65.6"/>
	<line class="st1" x1="49.6" y1="58" x2="71.8" y2="49.5"/>
	<line class="st1" x1="61.9" y1="90.2" x2="84" y2="81.7"/>
	<line class="st0" x1="52" y1="72.4" x2="74.2" y2="64"/>
	<line class="st0" x1="45.9" y1="56.3" x2="68.1" y2="47.9"/>
	<line class="st0" x1="58.2" y1="88.5" x2="80.3" y2="80.1"/>
	<path class="st0" d="M28.6,35c0,0,24.7,64.6,24.7,64.6c1.7,4.4-0.5,9.4-5,11.1c0,0,33.8-12.9,38.2-14.6c4.4-1.7,6.7-6.7,5-11.1
		L70.1,29"/>
</g>
</svg>
