<?xml version="1.0" encoding="utf-8"?>
<!-- Generator: Adobe Illustrator 25.2.3, SVG Export Plug-In . SVG Version: 6.00 Build 0)  -->
<svg version="1.1" id="Layer_1" xmlns="http://www.w3.org/2000/svg" xmlns:xlink="http://www.w3.org/1999/xlink" x="0px" y="0px"
	 viewBox="0 0 120 120" style="enable-background:new 0 0 120 120;" xml:space="preserve">
<style type="text/css">
	.st0{fill:#F5F5F5;}
	.st1{fill:none;stroke:#282828;stroke-width:3;stroke-linecap:round;stroke-linejoin:round;stroke-miterlimit:10;}
</style>
<g>
	<path class="st0" d="M101.3,62.6c0-2.6-0.3-5.2-0.8-7.7l9.4-5.4c-2.2-8-6.4-15.3-12.4-21.4l-9.4,5.4c-3.9-3.5-8.5-6.1-13.4-7.7
		V14.9c-4-1-8.1-1.6-12.3-1.6c-4.2,0-8.4,0.5-12.3,1.6v10.9c-4.9,1.6-9.4,4.3-13.4,7.7L27.3,28c-6,6.1-10.2,13.4-12.4,21.4l9.4,5.4
		c-0.5,2.5-0.8,5.1-0.8,7.7c0,2.6,0.3,5.2,0.8,7.7L15,75.8c2.2,8,6.4,15.3,12.4,21.4l9.4-5.4c3.9,3.5,8.5,6.1,13.4,7.7v10.9
		c4,1,8.1,1.6,12.3,1.6c4.2,0,8.4-0.5,12.3-1.6V99.4c4.9-1.6,9.4-4.3,13.4-7.7l9.4,5.4c6-6.1,10.2-13.4,12.4-21.4l-9.4-5.4
		C101.1,67.8,101.3,65.2,101.3,62.6z M62.5,84c-11.8,0-21.4-9.6-21.4-21.4s9.6-21.4,21.4-21.4s21.4,9.6,21.4,21.4S74.3,84,62.5,84z"
		/>
	<path class="st1" d="M96.4,57.4c0-2.6-0.3-5.2-0.8-7.7l9.4-5.4c-2.2-8-6.4-15.3-12.4-21.4l-9.4,5.4c-3.9-3.5-8.5-6.1-13.4-7.7V9.7
		c-4-1-8.1-1.6-12.3-1.6c-4.2,0-8.4,0.5-12.3,1.6v10.9c-4.9,1.6-9.4,4.3-13.4,7.7l-9.4-5.4c-6,6.1-10.2,13.4-12.4,21.4l9.4,5.4
		c-0.5,2.5-0.8,5.1-0.8,7.7c0,2.6,0.3,5.2,0.8,7.7L10,70.6c2.2,8,6.4,15.3,12.4,21.4l9.4-5.4c3.9,3.5,8.5,6.1,13.4,7.7v10.9
		c4,1,8.1,1.6,12.3,1.6c4.2,0,8.4-0.5,12.3-1.6V94.3c4.9-1.6,9.4-4.3,13.4-7.7l9.4,5.4c6-6.1,10.2-13.4,12.4-21.4l-9.4-5.4
		C96.1,62.6,96.4,60,96.4,57.4z M57.5,78.8c-11.8,0-21.4-9.6-21.4-21.4S45.7,36,57.5,36s21.4,9.6,21.4,21.4S69.3,78.8,57.5,78.8z"/>
</g>
</svg>
