<?xml version="1.0" encoding="utf-8"?>
<!-- Generator: Adobe Illustrator 25.2.3, SVG Export Plug-In . SVG Version: 6.00 Build 0)  -->
<svg version="1.1" id="Layer_1" xmlns="http://www.w3.org/2000/svg" xmlns:xlink="http://www.w3.org/1999/xlink" x="0px" y="0px"
	 viewBox="0 0 120 120" style="enable-background:new 0 0 120 120;" xml:space="preserve">
<style type="text/css">
	.st0{fill:none;stroke:#282828;stroke-width:3;stroke-linecap:round;stroke-linejoin:round;stroke-miterlimit:10;}
	.st1{fill:#F5F5F5;}
</style>
<g>
	<path class="st0" d="M104.6,82.5H15.4c-2.7,0-5-2.2-5-5V13.2c0-2.7,2.2-5,5-5h89.2c2.7,0,5,2.2,5,5v64.4
		C109.6,80.3,107.3,82.5,104.6,82.5z"/>
	<line class="st0" x1="35.2" y1="107.3" x2="84.8" y2="107.3"/>
	<line class="st0" x1="50.1" y1="107.3" x2="50.1" y2="82.5"/>
	<line class="st0" x1="69.9" y1="82.5" x2="69.9" y2="107.3"/>
	<rect x="25.3" y="23.1" class="st1" width="19.8" height="54.5"/>
	<circle class="st1" cx="65" cy="33" r="9.9"/>
	<circle class="st1" cx="94.7" cy="33" r="9.9"/>
	<rect x="20.4" y="18.1" class="st0" width="19.8" height="54.5"/>
	<circle class="st0" cx="60" cy="28" r="9.9"/>
	<circle class="st0" cx="89.7" cy="28" r="9.9"/>
	<polyline class="st0" points="52.6,72.6 65,52.8 82.3,60.2 97.2,47.8 	"/>
</g>
</svg>
