<?xml version="1.0" encoding="utf-8"?>
<!-- Generator: Adobe Illustrator 25.2.3, SVG Export Plug-In . SVG Version: 6.00 Build 0)  -->
<svg version="1.1" id="Layer_1" xmlns="http://www.w3.org/2000/svg" xmlns:xlink="http://www.w3.org/1999/xlink" x="0px" y="0px"
	 viewBox="0 0 120 120" style="enable-background:new 0 0 120 120;" xml:space="preserve">
<style type="text/css">
	.st0{fill:#F5F5F5;}
	.st1{fill:none;stroke:#282828;stroke-width:3;stroke-linecap:round;stroke-linejoin:round;stroke-miterlimit:10;}
</style>
<g>
	<polygon class="st0" points="86.3,54.3 107.7,16.8 53.2,35 	"/>
	<polygon class="st0" points="71.4,80.5 107.7,66.8 86.3,54.3 	"/>
	<polygon class="st0" points="16.8,107.7 44.1,80.5 34.3,71.4 	"/>
	<polygon class="st0" points="44.1,80.5 71.4,80.5 49.1,55.4 	"/>
	<polyline class="st1" points="39.5,75.9 48.6,30.5 103.2,62.3 66.8,75.9 103.2,12.3 48.6,30.5 	"/>
	<polygon class="st1" points="21.4,94.1 39.5,75.9 66.8,75.9 48.3,94.1 	"/>
	<polyline class="st1" points="39.5,75.9 29.8,66.8 30.5,35 66.8,75.9 	"/>
	<polygon class="st1" points="39.5,75.9 29.8,66.8 12.3,103.2 	"/>
	<line class="st1" x1="48.3" y1="94.1" x2="39.5" y2="75.9"/>
</g>
</svg>
