<?xml version="1.0" encoding="utf-8"?>
<!-- Generator: Adobe Illustrator 25.3.1, SVG Export Plug-In . SVG Version: 6.00 Build 0)  -->
<svg version="1.1" id="Layer_1" xmlns="http://www.w3.org/2000/svg" xmlns:xlink="http://www.w3.org/1999/xlink" x="0px" y="0px"
	 viewBox="0 0 123.7 89.9" style="enable-background:new 0 0 123.7 89.9;" xml:space="preserve">
<style type="text/css">
	.st0{fill:#F5F5F5;}
	.st1{fill:none;stroke:#282828;stroke-width:3;stroke-linecap:round;stroke-linejoin:round;stroke-miterlimit:10;}
	.st2{fill:#282828;}
</style>
<g>
	<path class="st0" d="M120.2,44.1h-17.6c-1.9,0-3.5,1.6-3.5,3.5v38.8c0,1.9,1.6,3.5,3.5,3.5h17.6c1.9,0,3.5-1.6,3.5-3.5V47.6
		C123.7,45.6,122.1,44.1,120.2,44.1z"/>
	<path class="st0" d="M50.9,20.5h48.2v-8.6c0-2.5-2-4.5-4.5-4.5H11.9c-2.5,0-4.5,2-4.5,4.5v55.2c0,2.5,2,4.5,4.5,4.5h35.4V24.1
		C47.3,22.1,48.9,20.5,50.9,20.5z"/>
	<g>
		<g>
			<path class="st1" d="M117.8,31.1v-7c0-1.9-1.6-3.5-3.5-3.5H50.8c-1.9,0-3.5,1.6-3.5,3.5v49.3c0,1.9,1.6,3.5,3.5,3.5H86"/>
			<line class="st1" x1="86.1" y1="69.9" x2="75.5" y2="69.9"/>
			<circle class="st2" cx="54.4" cy="48.7" r="1.8"/>
			<path class="st1" d="M114.3,38.1H96.6c-1.9,0-3.5,1.6-3.5,3.5v38.8c0,1.9,1.6,3.5,3.5,3.5h17.6c1.9,0,3.5-1.6,3.5-3.5V41.7
				C117.8,39.7,116.2,38.1,114.3,38.1z"/>
			<line class="st1" x1="101" y1="76.9" x2="109.9" y2="76.9"/>
			<circle class="st2" cx="105.5" cy="43.4" r="1.8"/>
		</g>
		<g>
			<path class="st1" d="M93.1,13.6V6.1c0-2.5-2.1-4.6-4.6-4.6H6.1c-2.5,0-4.6,2.1-4.6,4.6v55c0,2.5,2.1,4.6,4.6,4.6h34.5"/>
			<line class="st1" x1="1.5" y1="51.9" x2="40.6" y2="51.9"/>
			<line class="st1" x1="29" y1="83.9" x2="65.6" y2="83.9"/>
			<line class="st1" x1="38.1" y1="83.9" x2="38.1" y2="65.6"/>
		</g>
	</g>
</g>
</svg>
