<?xml version="1.0" encoding="utf-8"?>
<!-- Generator: Adobe Illustrator 25.2.3, SVG Export Plug-In . SVG Version: 6.00 Build 0)  -->
<svg version="1.1" id="Layer_1" xmlns="http://www.w3.org/2000/svg" xmlns:xlink="http://www.w3.org/1999/xlink" x="0px" y="0px"
	 viewBox="0 0 120 120" style="enable-background:new 0 0 120 120;" xml:space="preserve">
<style type="text/css">
	.st0{fill:#F5F5F5;}
	.st1{fill:none;stroke:#282828;stroke-width:3;stroke-linecap:round;stroke-linejoin:round;stroke-miterlimit:10;}
</style>
<g>
	<path class="st0" d="M105.1,67c-3.6-3.6-9.3-3.6-12.9,0L92,67.2c-1.6,1.6-4.2,1.6-5.8,0c-0.8-0.8-1.2-1.8-1.2-2.9V39.5H60
		c-1,0-2.1-0.4-2.9-1.2c-1.6-1.6-1.6-4.2,0-5.8l0.2-0.2c3.6-3.6,3.6-9.3,0-12.9c-3.6-3.6-9.3-3.6-12.9,0c-3.6,3.6-3.6,9.3,0,12.9
		l0.2,0.2c1.6,1.6,1.6,4.2,0,5.8c-0.8,0.8-1.8,1.2-2.9,1.2h-25v68.2H85V82.5c0-1,0.4-2.1,1.2-2.9c1.6-1.6,4.2-1.6,5.8,0l0.2,0.2
		c3.6,3.6,9.3,3.6,12.9,0C108.6,76.3,108.6,70.6,105.1,67z M51.7,95.6H28.9c-1.7,0-3-1.4-3-3V69.8c0-1.7,1.4-3,3-3s3,1.4,3,3v19.7
		h19.7c1.7,0,3,1.4,3,3S53.3,95.6,51.7,95.6z"/>
	<g>
		<path class="st1" d="M100.5,62.5c-3.6-3.6-9.3-3.6-12.9,0l-0.2,0.2c-1.6,1.6-4.2,1.6-5.8,0c-0.8-0.8-1.2-1.8-1.2-2.9V35h-25
			c-1,0-2.1-0.4-2.9-1.2c-1.6-1.6-1.6-4.2,0-5.8l0.2-0.2c3.6-3.6,3.6-9.3,0-12.9c-3.6-3.6-9.3-3.6-12.9,0c-3.6,3.6-3.6,9.3,0,12.9
			l0.2,0.2c1.6,1.6,1.6,4.2,0,5.8c-0.8,0.8-1.8,1.2-2.9,1.2h-25v68.2h68.2V78c0-1,0.4-2.1,1.2-2.9c1.6-1.6,4.2-1.6,5.8,0l0.2,0.2
			c3.6,3.6,9.3,3.6,12.9,0C104.1,71.8,104.1,66,100.5,62.5z"/>
		<polyline class="st1" points="48.6,89.5 25.9,89.5 25.9,66.8 		"/>
	</g>
</g>
</svg>
