<svg width="71" height="70" viewBox="0 0 71 70" fill="none" xmlns="http://www.w3.org/2000/svg">
<path d="M68.2199 41.0199C65.6565 38.4565 61.5979 38.4565 59.0345 41.0199L58.8921 41.1623C57.7529 42.3015 55.9016 42.3015 54.7623 41.1623C54.1927 40.5926 53.9079 39.8806 53.9079 39.0974V21.4387H36.1068C35.3948 21.4387 34.6115 21.1539 34.0419 20.5843C32.9026 19.445 32.9026 17.5937 34.0419 16.4544L34.1843 16.312C36.7476 13.7487 36.7476 9.69003 34.1843 7.12668C31.6209 4.56332 27.5623 4.56332 24.999 7.12668C22.4356 9.69003 22.4356 13.7487 24.999 16.312L25.1414 16.4544C26.2806 17.5937 26.2806 19.445 25.1414 20.5843C24.5717 21.1539 23.8597 21.4387 23.0764 21.4387H5.27539V70H53.9079V52.0565C53.9079 51.3445 54.1927 50.5612 54.7623 49.9916C55.9016 48.8523 57.7529 48.8523 58.8921 49.9916L59.0345 50.134C61.5979 52.6974 65.6565 52.6974 68.2199 50.134C70.712 47.6419 70.712 43.5832 68.2199 41.0199ZM30.1969 61.3843H13.9623C12.7518 61.3843 11.8262 60.3874 11.8262 59.2481V43.0136C11.8262 41.8031 12.823 40.8775 13.9623 40.8775C15.1016 40.8775 16.0984 41.8743 16.0984 43.0136V57.0408H30.1257C31.3361 57.0408 32.2618 58.0377 32.2618 59.1769C32.2618 60.3162 31.3361 61.3843 30.1969 61.3843Z" fill="#F5F5F5"/>
<path d="M64.9445 37.8157C62.3812 35.2524 58.3225 35.2524 55.7592 37.8157L55.6168 37.9581C54.4775 39.0974 52.6262 39.0974 51.4869 37.9581C50.9173 37.3885 50.6325 36.6764 50.6325 35.8932V18.2346H32.8314C32.1194 18.2346 31.3361 17.9497 30.7665 17.3801C29.6272 16.2408 29.6272 14.3895 30.7665 13.2503L30.9089 13.1079C33.4722 10.5445 33.4722 6.48586 30.9089 3.92251C28.3455 1.35916 24.2869 1.35916 21.7236 3.92251C19.1602 6.48586 19.1602 10.5445 21.7236 13.1079L21.866 13.2503C23.0052 14.3895 23.0052 16.2408 21.866 17.3801C21.2963 17.9497 20.5843 18.2346 19.801 18.2346H2V66.7958H50.5613V48.8524C50.5613 48.1403 50.8461 47.3571 51.4157 46.7874C52.555 45.6482 54.4063 45.6482 55.5456 46.7874L55.688 46.9298C58.2513 49.4932 62.3099 49.4932 64.8733 46.9298C67.5079 44.4377 67.5079 40.3079 64.9445 37.8157Z" stroke="#282828" stroke-width="3" stroke-miterlimit="10" stroke-linecap="round" stroke-linejoin="round"/>
<path d="M27.9895 57.0408H11.8262V40.8775" stroke="#282828" stroke-width="3" stroke-miterlimit="10" stroke-linecap="round" stroke-linejoin="round"/>
</svg>
