<svg width="74" height="77" viewBox="0 0 74 77" fill="none" xmlns="http://www.w3.org/2000/svg">
<path d="M67.736 41.24C67.736 39.368 67.52 37.496 67.16 35.696L73.928 31.808C72.344 26.048 69.32 20.792 65 16.4L58.232 20.288C55.424 17.768 52.112 15.896 48.584 14.744V6.896C45.704 6.176 42.752 5.744 39.728 5.744C36.704 5.744 33.68 6.104 30.872 6.896V14.744C27.344 15.896 24.104 17.84 21.224 20.288L14.456 16.328C10.136 20.72 7.11202 25.976 5.52802 31.736L12.296 35.624C11.936 37.424 11.72 39.296 11.72 41.168C11.72 43.04 11.936 44.912 12.296 46.712L5.60002 50.744C7.18402 56.504 10.208 61.76 14.528 66.152L21.296 62.264C24.104 64.784 27.416 66.656 30.944 67.808V75.656C33.824 76.376 36.776 76.808 39.8 76.808C42.824 76.808 45.848 76.448 48.656 75.656V67.736C52.184 66.584 55.424 64.64 58.304 62.192L65.072 66.08C69.392 61.688 72.416 56.432 74 50.672L67.232 46.784C67.592 44.984 67.736 43.112 67.736 41.24ZM39.8 56.648C31.304 56.648 24.392 49.736 24.392 41.24C24.392 32.744 31.304 25.832 39.8 25.832C48.296 25.832 55.208 32.744 55.208 41.24C55.208 49.736 48.296 56.648 39.8 56.648Z" fill="#F5F5F5"/>
<path d="M64.208 37.496C64.208 35.624 63.992 33.752 63.632 31.952L70.4 28.064C68.816 22.304 65.792 17.048 61.472 12.656L54.704 16.544C51.896 14.024 48.584 12.152 45.056 11V3.152C42.176 2.432 39.224 2 36.2 2C33.176 2 30.152 2.36 27.344 3.152V11C23.816 12.152 20.576 14.096 17.696 16.544L10.928 12.656C6.608 17.048 3.584 22.304 2 28.064L8.768 31.952C8.408 33.752 8.192 35.624 8.192 37.496C8.192 39.368 8.408 41.24 8.768 43.04L2 47C3.584 52.76 6.608 58.016 10.928 62.408L17.696 58.52C20.504 61.04 23.816 62.912 27.344 64.064V71.912C30.224 72.632 33.176 73.064 36.2 73.064C39.224 73.064 42.248 72.704 45.056 71.912V64.064C48.584 62.912 51.824 60.968 54.704 58.52L61.472 62.408C65.792 58.016 68.816 52.76 70.4 47L63.632 43.112C63.992 41.24 64.208 39.368 64.208 37.496ZM36.2 52.904C27.704 52.904 20.792 45.992 20.792 37.496C20.792 29 27.704 22.088 36.2 22.088C44.696 22.088 51.608 29 51.608 37.496C51.608 45.992 44.696 52.904 36.2 52.904Z" stroke="#282828" stroke-width="3" stroke-miterlimit="10" stroke-linecap="round" stroke-linejoin="round"/>
</svg>
